<?xml version="1.0" standalone="no"?>
<!DOCTYPE svg PUBLIC "-//W3C//DTD SVG 20010904//EN"
 "http://www.w3.org/TR/2001/REC-SVG-20010904/DTD/svg10.dtd">
<svg version="1.0" xmlns="http://www.w3.org/2000/svg"
 width="100.000000pt" height="100.000000pt" viewBox="0 0 100.000000 100.000000"
 preserveAspectRatio="xMidYMid meet">

<g transform="translate(0.000000,100.000000) scale(0.100000,-0.100000)"
fill="#000000" stroke="none">
<path d="M305 994 c-11 -2 -45 -9 -75 -15 -75 -15 -173 -63 -204 -100 -53 -62
-21 -127 87 -178 95 -44 158 -56 302 -56 150 0 228 14 317 59 104 52 133 123
76 183 -27 29 -109 69 -179 89 -52 15 -284 28 -324 18z"/>
<path d="M0 657 c0 -56 4 -70 26 -97 65 -76 195 -114 394 -114 199 0 329 38
394 114 22 27 26 41 26 97 l0 65 -27 -17 c-63 -42 -93 -55 -168 -77 -67 -19
-103 -22 -225 -22 -191 1 -277 22 -393 99 l-27 17 0 -65z"/>
<path d="M0 456 c0 -55 4 -69 26 -96 32 -38 99 -73 185 -96 68 -19 302 -26
367 -12 31 7 33 6 26 -15 -3 -12 -8 -24 -10 -26 -2 -3 -53 -7 -113 -9 -180 -7
-357 28 -439 88 l-42 30 0 -64 c0 -55 4 -69 26 -96 32 -38 99 -72 185 -96 75
-21 329 -25 392 -7 36 11 41 10 83 -19 126 -89 299 -8 312 146 3 43 -1 65 -18
101 -24 49 -89 105 -122 105 -16 0 -18 8 -18 66 l0 65 -32 -25 c-73 -55 -239
-96 -388 -96 -149 0 -315 41 -387 96 l-33 25 0 -65z m893 -129 c98 -74 82
-219 -29 -272 -107 -50 -235 43 -221 161 13 121 155 184 250 111z"/>
<path d="M829 228 l-54 -60 -27 21 c-31 25 -44 26 -51 6 -4 -9 9 -25 35 -45
23 -16 45 -30 49 -30 9 0 129 139 129 149 0 5 -6 11 -14 14 -8 3 -35 -18 -67
-55z"/>
</g>
</svg>
