<?xml version="1.0" encoding="UTF-8"?>
<svg xmlns="http://www.w3.org/2000/svg" xmlns:xlink="http://www.w3.org/1999/xlink" viewBox="0 0 500 500" width="500px" height="500px">
<g id="surface653838">
<path style=" stroke:none;fill-rule:nonzero;fill:rgb(100%,100%,100%);fill-opacity:1;" d="M 467.929688 220.898438 L 279.101562 32.070312 C 271.09375 24.023438 260.546875 20 250 20 C 239.453125 20 228.90625 24.023438 220.898438 32.070312 L 183.554688 69.414062 L 229.765625 115.625 C 245.117188 106.601562 265.117188 108.554688 278.28125 121.71875 C 291.445312 134.882812 293.359375 154.882812 284.335938 170.195312 L 329.765625 215.625 C 345.117188 206.601562 365.117188 208.554688 378.28125 221.71875 C 393.90625 237.34375 393.90625 262.65625 378.28125 278.28125 C 362.65625 293.90625 337.34375 293.90625 321.71875 278.28125 C 308.554688 265.117188 306.601562 245.117188 315.625 229.765625 L 270.195312 184.335938 C 266.953125 186.25 263.554688 187.65625 260 188.554688 L 260 311.40625 C 277.226562 315.859375 290 331.367188 290 350 C 290 372.109375 272.109375 390 250 390 C 227.890625 390 210 372.109375 210 350 C 210 331.367188 222.773438 315.859375 240 311.40625 L 240 188.554688 C 233.320312 186.835938 226.953125 183.515625 221.71875 178.28125 C 208.554688 165.117188 206.640625 145.117188 215.664062 129.804688 L 169.414062 83.554688 L 32.070312 220.898438 C 15.976562 236.953125 15.976562 263.046875 32.070312 279.101562 L 220.898438 467.929688 C 228.90625 475.976562 239.453125 480 250 480 C 260.546875 480 271.09375 475.976562 279.101562 467.929688 L 467.929688 279.101562 C 484.023438 263.046875 484.023438 236.953125 467.929688 220.898438 Z M 467.929688 220.898438 "/>
</g>
</svg>
