<?xml version="1.0" encoding="UTF-8"?>
<svg xmlns="http://www.w3.org/2000/svg" xmlns:xlink="http://www.w3.org/1999/xlink" viewBox="0 0 250 250" width="250px" height="250px">
<g id="surface621764">
<path style=" stroke:none;fill-rule:nonzero;fill:rgb(100%,100%,100%);fill-opacity:1;" d="M 140.9375 -0.0195312 C 154.6875 31.796875 91.601562 51.445312 85.761719 77.96875 C 80.371094 102.304688 123.203125 130.605469 123.222656 130.605469 C 116.71875 120.527344 112.011719 112.207031 105.488281 96.523438 C 94.453125 70 172.65625 46.015625 140.9375 -0.0195312 Z M 182.753906 44.0625 C 182.753906 44.0625 127.519531 47.558594 124.707031 82.910156 C 123.457031 98.652344 139.21875 107.050781 139.6875 118.515625 C 140.039062 127.851562 130.253906 135.644531 130.253906 135.644531 C 130.253906 135.644531 148.007812 132.304688 153.574219 118.027344 C 159.726562 102.1875 141.640625 91.367188 143.457031 78.691406 C 145.214844 66.5625 182.753906 44.0625 182.753906 44.0625 Z M 196.152344 125.722656 C 190.371094 125.46875 183.945312 127.382812 178.125 131.5625 C 189.53125 129.121094 199.179688 136.09375 199.179688 144.140625 C 199.179688 162.265625 172.988281 179.394531 172.988281 179.394531 C 172.988281 179.394531 213.535156 174.765625 213.535156 145 C 213.535156 132.695312 205.761719 126.171875 196.152344 125.722656 Z M 95.917969 125.761719 C 95.917969 125.761719 45.3125 125.078125 45.3125 139.394531 C 45.3125 154.355469 111.582031 155.410156 158.90625 146.191406 C 158.90625 146.191406 171.542969 137.539062 174.902344 134.316406 C 143.886719 140.644531 73.105469 141.484375 73.105469 136.015625 C 73.105469 130.957031 95.917969 125.761719 95.917969 125.761719 Z M 83.691406 153.613281 C 75.9375 153.613281 64.355469 159.609375 64.355469 165.390625 C 64.355469 177.011719 122.8125 185.976562 166.09375 168.984375 L 151.113281 159.804688 C 121.777344 169.199219 67.695312 166.191406 83.691406 153.613281 Z M 90.898438 179.609375 C 80.253906 179.609375 73.359375 186.171875 73.359375 191.015625 C 73.359375 205.9375 136.894531 207.441406 162.070312 192.265625 L 146.074219 182.089844 C 127.265625 190.039062 80.039062 191.113281 90.898438 179.609375 Z M 55.449219 193.125 C 38.105469 192.773438 26.835938 200.566406 26.835938 207.03125 C 26.816406 241.40625 204.453125 239.746094 204.453125 204.609375 C 204.453125 198.789062 197.578125 196.015625 195.097656 194.6875 C 209.609375 228.28125 49.84375 225.683594 49.84375 205.859375 C 49.84375 201.347656 61.5625 196.914062 72.460938 199.042969 L 63.222656 193.789062 C 60.507812 193.378906 57.910156 193.164062 55.449219 193.125 Z M 223.183594 216.25 C 196.171875 241.835938 127.734375 251.171875 58.90625 235.371094 C 127.714844 263.515625 222.832031 247.675781 223.183594 216.25 Z M 223.183594 216.25 "/>
</g>
</svg>
