<?xml version="1.0" standalone="no"?>
<!DOCTYPE svg PUBLIC "-//W3C//DTD SVG 20010904//EN"
 "http://www.w3.org/TR/2001/REC-SVG-20010904/DTD/svg10.dtd">
<svg version="1.0" xmlns="http://www.w3.org/2000/svg"
 width="100.000000pt" height="100.000000pt" viewBox="0 0 100.000000 100.000000"
 preserveAspectRatio="xMidYMid meet">

<g transform="translate(0.000000,100.000000) scale(0.100000,-0.100000)"
fill="#000000" stroke="none">
<path d="M115 818 c-55 -10 -104 -23 -109 -28 -9 -9 230 -479 248 -486 6 -2
58 9 115 26 57 16 107 27 111 25 4 -3 34 -50 65 -106 32 -55 63 -103 69 -105
7 -3 79 21 161 51 204 76 205 76 205 86 0 5 -26 48 -57 95 -62 93 -62 97 8
109 21 4 45 12 55 20 18 12 15 18 -40 99 -32 47 -62 88 -67 92 -10 6 -160 -34
-173 -47 -6 -5 10 -37 38 -80 26 -39 44 -75 39 -79 -17 -15 -276 -81 -285 -72
-5 5 -61 101 -126 213 -87 151 -122 204 -137 206 -11 0 -65 -8 -120 -19z m225
-212 c62 -107 112 -198 112 -203 0 -4 -41 -20 -91 -34 l-91 -27 -109 212 -110
211 82 16 c45 9 85 17 89 18 3 0 57 -86 118 -193z m564 -12 c21 -31 35 -58 33
-61 -3 -2 -26 -11 -51 -18 l-45 -14 -36 51 c-51 71 -52 75 -13 87 64 18 73 14
112 -45z m-31 -213 c26 -38 47 -74 47 -79 0 -9 -263 -112 -286 -112 -9 0 -104
160 -104 177 0 8 246 80 280 82 8 1 36 -30 63 -68z"/>
</g>
</svg>
