<?xml version="1.0" encoding="UTF-8"?>
<svg xmlns="http://www.w3.org/2000/svg" xmlns:xlink="http://www.w3.org/1999/xlink" viewBox="0 0 480 480" width="480px" height="480px">
<g id="surface607568">
<path style=" stroke:none;fill-rule:nonzero;fill:rgb(100%,100%,100%);fill-opacity:1;" d="M 319.511719 90 C 317.15625 90 315 91.886719 315 94.511719 L 315 176.953125 L 296.308594 166.054688 C 295.136719 165.363281 293.820312 165.027344 292.5 165.027344 C 291.179688 165.027344 289.863281 165.363281 288.691406 166.054688 L 243.78125 192.246094 C 241.4375 193.597656 240 196.09375 240 198.78125 L 240 251.222656 C 240 253.921875 241.4375 256.402344 243.78125 257.753906 L 288.691406 283.945312 C 289.863281 284.636719 291.179688 284.972656 292.5 284.972656 C 293.820312 284.972656 295.136719 284.636719 296.308594 283.945312 L 341.21875 257.753906 C 343.5625 256.402344 345 253.90625 345 251.222656 L 345 108.457031 C 345 105.785156 343.574219 103.332031 341.28125 101.984375 L 321.738281 90.617188 C 321.003906 90.195312 320.261719 90 319.511719 90 Z M 172.5 165.03125 C 171.183594 165.03125 169.867188 165.371094 168.691406 166.054688 L 123.78125 192.246094 C 121.4375 193.597656 120 196.09375 120 198.78125 L 120 251.222656 C 120 253.921875 121.4375 256.402344 123.78125 257.753906 L 168.691406 283.945312 C 171.046875 285.308594 173.953125 285.308594 176.308594 283.945312 L 221.222656 257.753906 C 223.5625 256.402344 225 253.90625 225 251.222656 L 225 198.78125 C 225 196.078125 223.5625 193.597656 221.222656 192.246094 L 176.308594 166.054688 C 175.132812 165.371094 173.816406 165.03125 172.5 165.03125 Z M 412.5 165.03125 C 411.179688 165.03125 409.863281 165.363281 408.691406 166.054688 L 363.78125 192.246094 C 361.4375 193.597656 360 196.09375 360 198.78125 L 360 251.222656 C 360 253.921875 361.4375 256.402344 363.78125 257.753906 L 407.34375 284.09375 C 409.683594 285.515625 412.621094 285.53125 414.992188 284.152344 L 436.40625 271.699219 C 438.625 270.425781 438.640625 267.203125 436.40625 265.898438 L 390 238.566406 L 390 211.640625 L 412.5 198.546875 L 435 211.640625 L 435 230.390625 C 435 232.894531 437.105469 233.28125 438.515625 232.441406 C 444.1875 229.113281 461.28125 219.199219 461.28125 219.199219 C 463.574219 217.863281 465 215.394531 465 212.726562 L 465 198.78125 C 465 196.078125 463.5625 193.597656 461.21875 192.246094 L 416.308594 166.054688 C 415.125 165.363281 413.820312 165.03125 412.5 165.03125 Z M 52.5 165.058594 C 51.179688 165.058594 49.863281 165.394531 48.691406 166.085938 L 3.777344 192.246094 C 1.4375 193.609375 0 196.109375 0 198.808594 L 0 265.75 C 0 269.023438 3.539062 271.050781 6.355469 269.414062 L 26.277344 257.8125 C 28.574219 256.460938 30 254.007812 30 251.335938 L 30 211.699219 L 52.5 198.574219 L 75 211.699219 L 75 251.339844 C 75 254.007812 76.425781 256.460938 78.71875 257.8125 L 98.640625 269.414062 C 101.460938 271.0625 105 269.023438 105 265.753906 L 105 198.808594 C 105 196.109375 103.5625 193.609375 101.21875 192.246094 L 56.308594 166.085938 C 55.136719 165.394531 53.820312 165.058594 52.5 165.058594 Z M 292.5 198.542969 L 315 211.671875 L 315 238.328125 L 292.5 251.457031 L 270 238.332031 L 270 211.671875 Z M 412.5 210.058594 L 399.640625 217.558594 L 399.640625 232.527344 L 412.5 240 L 425.359375 232.527344 L 425.359375 217.558594 Z M 231.09375 269.96875 C 229.550781 269.96875 227.992188 270.347656 226.640625 271.113281 L 184.453125 295.488281 C 181.679688 297.019531 180 300.027344 180 303.164062 L 180 351.855469 C 180 354.992188 181.753906 357.941406 184.453125 359.53125 L 195.554688 365.859375 C 200.882812 368.484375 202.839844 368.496094 205.253906 368.496094 C 213.203125 368.496094 217.734375 363.742188 217.734375 355.339844 L 217.734375 307.238281 C 217.734375 306.5 217.164062 305.976562 216.503906 305.976562 L 211.171875 305.976562 C 210.4375 305.976562 209.914062 306.578125 209.914062 307.238281 L 209.914062 355.339844 C 209.914062 358.988281 206.058594 362.726562 199.773438 359.589844 L 188.230469 352.941406 C 187.855469 352.714844 187.585938 352.261719 187.585938 351.828125 L 187.585938 303.132812 C 187.585938 302.699219 187.796875 302.1875 188.230469 301.964844 L 230.421875 277.648438 C 230.871094 277.421875 231.378906 277.421875 231.738281 277.648438 L 273.953125 301.964844 C 274.390625 302.1875 274.597656 302.625 274.597656 303.132812 L 274.597656 351.828125 C 274.597656 352.335938 274.316406 352.773438 273.953125 353 L 231.738281 377.402344 C 231.363281 377.628906 230.78125 377.628906 230.421875 377.402344 L 219.640625 370.988281 C 219.355469 370.835938 218.898438 370.75 218.613281 370.898438 C 215.628906 372.652344 215.03125 372.882812 212.257812 373.828125 C 211.519531 374.054688 210.523438 374.503906 212.636719 375.675781 L 226.640625 383.992188 C 228.035156 384.730469 229.5625 385.164062 231.09375 385.164062 C 232.699219 385.164062 234.257812 384.730469 235.488281 383.933594 L 277.675781 359.53125 C 280.449219 358 282.128906 354.992188 282.128906 351.855469 L 282.128906 303.164062 C 282.128906 300.027344 280.375 297.09375 277.675781 295.488281 L 235.488281 271.113281 C 234.175781 270.347656 232.636719 269.972656 231.09375 269.972656 Z M 296.894531 292.441406 C 292.589844 292.441406 288.808594 295.921875 288.808594 300.527344 C 288.808594 304.980469 292.441406 308.644531 296.894531 308.644531 C 301.347656 308.644531 304.980469 304.980469 304.980469 300.527344 C 304.980469 295.921875 301.273438 292.367188 296.894531 292.441406 Z M 296.804688 293.730469 C 300.617188 293.730469 303.691406 296.730469 303.691406 300.527344 C 303.691406 304.246094 300.601562 307.320312 296.804688 307.414062 C 293.070312 307.414062 290.039062 304.324219 290.039062 300.527344 C 290.039062 296.730469 293.085938 293.730469 296.804688 293.730469 Z M 293.847656 295.925781 L 293.847656 305.039062 L 295.574219 305.039062 L 295.574219 301.40625 L 297.1875 301.40625 C 297.847656 301.40625 298.003906 301.6875 298.152344 302.195312 C 298.152344 302.273438 298.429688 304.632812 298.503906 305.066406 L 300.378906 305.066406 C 300.171875 304.632812 300.015625 303.386719 299.941406 302.636719 C 299.730469 301.464844 299.664062 300.660156 298.417969 300.585938 C 299.078125 300.359375 300.175781 300.011719 300.175781 298.328125 C 300.175781 295.914062 298.078125 295.925781 296.980469 295.925781 Z M 295.574219 297.390625 L 297.039062 297.390625 C 297.492188 297.390625 298.359375 297.378906 298.359375 298.621094 C 298.359375 299.132812 298.136719 299.957031 296.953125 299.941406 L 295.574219 299.941406 Z M 242.402344 304.835938 C 230.355469 304.835938 223.214844 309.96875 223.214844 318.425781 C 223.214844 327.699219 230.371094 330.175781 241.90625 331.347656 C 255.703125 332.726562 256.789062 334.710938 256.789062 337.414062 C 256.789062 342.152344 252.980469 344.121094 244.074219 344.121094 C 232.898438 344.121094 230.4375 341.351562 229.628906 335.800781 C 229.554688 335.214844 229.027344 334.773438 228.371094 334.773438 L 222.890625 334.773438 C 222.230469 334.773438 221.660156 335.300781 221.660156 336.035156 C 221.660156 343.113281 225.519531 351.589844 243.984375 351.589844 C 257.53125 351.578125 265.195312 346.328125 265.195312 337.117188 C 265.195312 328 259.054688 325.574219 246.066406 323.816406 C 232.925781 322.0625 231.621094 321.179688 231.621094 318.105469 C 231.621094 315.554688 232.699219 312.214844 242.402344 312.214844 C 251.085938 312.214844 254.324219 314.117188 255.644531 319.949219 C 255.792969 320.535156 256.203125 320.886719 256.785156 320.886719 L 262.265625 320.886719 C 262.625 320.886719 262.933594 320.746094 263.144531 320.535156 C 263.371094 320.253906 263.511719 319.960938 263.4375 319.597656 C 262.566406 309.519531 255.917969 304.832031 242.402344 304.832031 Z M 242.402344 304.835938 "/>
</g>
</svg>
