<?xml version="1.0" encoding="UTF-8"?>
<svg xmlns="http://www.w3.org/2000/svg" xmlns:xlink="http://www.w3.org/1999/xlink" viewBox="0 0 512 512" width="512px" height="512px">
<g id="surface77824147">
<path style=" stroke:none;fill-rule:nonzero;fill:rgb(44.313726%,44.313726%,44.313726%);fill-opacity:1;" d="M 256 104 C 186.25 104 123.003906 120.480469 76.59375 147.6875 C 30.183594 174.894531 0 213.554688 0 257.390625 C 0 301.226562 30.183594 339.886719 76.59375 367.09375 C 123.003906 394.300781 186.25 410.78125 256 410.78125 C 325.75 410.78125 388.996094 394.300781 435.40625 367.09375 C 481.816406 339.886719 512 301.226562 512 257.390625 C 512 213.554688 481.816406 174.894531 435.40625 147.6875 C 388.996094 120.480469 325.75 104 256 104 Z M 256 120 C 323.214844 120 383.964844 136.070312 427.3125 161.484375 C 470.660156 186.898438 496 220.929688 496 257.390625 C 496 293.851562 470.660156 327.882812 427.3125 353.296875 C 383.964844 378.710938 323.214844 394.78125 256 394.78125 C 188.785156 394.78125 128.035156 378.710938 84.6875 353.296875 C 41.339844 327.882812 16 293.851562 16 257.390625 C 16 220.929688 41.339844 186.898438 84.6875 161.484375 C 128.035156 136.070312 188.785156 120 256 120 Z M 208.125 146.640625 C 207.667969 146.644531 207.214844 146.683594 206.765625 146.765625 C 194.65625 148.648438 183.414062 150.9375 172.96875 153.53125 C 170.09375 154.125 167.773438 156.242188 166.925781 159.054688 C 166.074219 161.863281 166.835938 164.914062 168.902344 167 C 170.96875 169.085938 174.011719 169.871094 176.828125 169.046875 C 186.800781 166.570312 197.582031 164.375 209.234375 162.5625 C 213.390625 161.972656 216.382812 158.273438 216.089844 154.085938 C 215.796875 149.898438 212.320312 146.648438 208.125 146.640625 Z M 143.265625 162.90625 C 142.277344 162.902344 141.296875 163.082031 140.375 163.4375 C 105.800781 176.082031 83.066406 191.917969 68.953125 204.78125 C 54.839844 217.644531 48.984375 228.171875 48.984375 228.171875 C 47.453125 230.691406 47.429688 233.847656 48.925781 236.386719 C 50.421875 238.925781 53.191406 240.4375 56.136719 240.320312 C 59.082031 240.207031 61.726562 238.480469 63.015625 235.828125 C 63.015625 235.828125 67.097656 228.125 79.734375 216.609375 C 92.371094 205.09375 113.21875 190.410156 145.875 178.46875 C 149.566406 177.191406 151.796875 173.4375 151.152344 169.585938 C 150.503906 165.730469 147.171875 162.910156 143.265625 162.90625 Z M 237.125 168.359375 L 210.09375 297.75 L 238.390625 297.75 L 252.046875 233.046875 L 274.65625 233.046875 C 281.871094 233.046875 286.636719 234.257812 288.859375 236.640625 C 291.066406 239.046875 291.5625 243.574219 290.28125 250.125 L 279.953125 297.75 L 308.703125 297.75 L 319.890625 246.21875 C 322.289062 233.867188 320.46875 224.808594 314.484375 219.3125 C 308.386719 213.730469 297.648438 211.484375 281.640625 211.484375 L 256.421875 211.484375 L 265.421875 168.359375 Z M 113.046875 211.484375 L 91.171875 330.09375 L 119.703125 330.09375 L 125.390625 297.75 L 143.140625 297.75 C 180.300781 297.75 200.519531 289.136719 208.078125 257.25 C 214.582031 229.851562 197.953125 211.484375 170.546875 211.484375 Z M 339.484375 211.484375 L 317.609375 330.09375 L 346.140625 330.09375 L 351.828125 297.75 L 369.578125 297.75 C 406.738281 297.75 426.957031 289.136719 434.515625 257.25 C 441.019531 229.851562 424.390625 211.484375 396.984375 211.484375 Z M 137.546875 233.046875 L 159.78125 233.046875 C 178.199219 233.046875 182.070312 241.355469 181.109375 250.59375 C 178.636719 274.378906 163.804688 276.171875 147.84375 276.171875 L 129.40625 276.171875 Z M 363.984375 233.046875 L 386.21875 233.046875 C 404.636719 233.046875 408.507812 241.355469 407.546875 250.59375 C 405.074219 274.378906 390.234375 276.171875 374.28125 276.171875 L 355.84375 276.171875 Z M 461.03125 375.75 C 458.066406 375.699219 455.316406 377.289062 453.882812 379.886719 C 452.453125 382.484375 452.574219 385.660156 454.203125 388.140625 L 462.796875 401.640625 C 465.175781 405.367188 470.125 406.464844 473.851562 404.085938 C 477.578125 401.707031 478.675781 396.757812 476.296875 393.03125 L 467.6875 379.546875 C 466.257812 377.230469 463.75 375.800781 461.03125 375.75 Z M 428.234375 393.46875 C 425.558594 393.621094 423.136719 395.101562 421.785156 397.414062 C 420.429688 399.726562 420.324219 402.5625 421.5 404.96875 L 428.328125 419.453125 C 430.21875 423.449219 434.988281 425.15625 438.984375 423.265625 C 442.980469 421.375 444.6875 416.605469 442.796875 412.609375 L 435.96875 398.140625 C 434.601562 395.136719 431.527344 393.28125 428.234375 393.46875 Z M 394.09375 407.3125 C 391.554688 407.433594 389.226562 408.753906 387.816406 410.867188 C 386.40625 412.984375 386.085938 415.640625 386.953125 418.03125 L 392.1875 433.15625 C 393.632812 437.332031 398.191406 439.546875 402.367188 438.101562 C 406.542969 436.65625 408.757812 432.097656 407.3125 427.921875 L 402.078125 412.796875 C 400.953125 409.382812 397.683594 407.140625 394.09375 407.3125 Z M 358.5625 417.71875 C 356.167969 417.839844 353.953125 419.03125 352.53125 420.964844 C 351.105469 422.894531 350.625 425.363281 351.21875 427.6875 L 354.96875 443.25 C 356.007812 447.546875 360.335938 450.1875 364.632812 449.148438 C 368.929688 448.109375 371.570312 443.78125 370.53125 439.484375 L 366.78125 423.9375 C 365.917969 420.140625 362.449219 417.515625 358.5625 417.71875 Z M 322.90625 424.796875 C 322.636719 424.789062 322.363281 424.792969 322.09375 424.8125 C 319.835938 424.953125 317.746094 426.046875 316.339844 427.8125 C 314.929688 429.582031 314.335938 431.863281 314.703125 434.09375 L 317.0625 449.921875 C 317.484375 452.75 319.382812 455.140625 322.039062 456.1875 C 324.699219 457.238281 327.71875 456.789062 329.957031 455.007812 C 332.195312 453.230469 333.3125 450.390625 332.890625 447.5625 L 330.53125 431.734375 C 330.015625 427.875 326.796875 424.945312 322.90625 424.796875 Z M 285.859375 428.6875 C 283.601562 428.640625 281.425781 429.550781 279.875 431.195312 C 278.324219 432.839844 277.542969 435.058594 277.71875 437.3125 L 278.75 453.28125 C 278.933594 456.132812 280.625 458.671875 283.1875 459.9375 C 285.75 461.207031 288.796875 461.007812 291.171875 459.421875 C 293.550781 457.835938 294.902344 455.101562 294.71875 452.25 L 293.671875 436.28125 C 293.460938 432.09375 290.050781 428.78125 285.859375 428.6875 Z M 285.859375 428.6875 "/>
</g>
</svg>
