<?xml version="1.0" encoding="UTF-8"?>
<svg xmlns="http://www.w3.org/2000/svg" xmlns:xlink="http://www.w3.org/1999/xlink" viewBox="0 0 480 480" width="480px" height="480px">
<g id="surface618178">
<path style=" stroke:none;fill-rule:nonzero;fill:rgb(100%,100%,100%);fill-opacity:1;" d="M 240 347.039062 C 103.171875 347.039062 0 301.019531 0 240 C 0 178.980469 103.171875 132.960938 240 132.960938 C 376.828125 132.960938 480 178.980469 480 240 C 480 301.019531 376.828125 347.039062 240 347.039062 Z M 240 162.960938 C 116.25 162.960938 30 203.550781 30 240 C 30 276.449219 116.25 317.039062 240 317.039062 C 363.75 317.039062 450 276.449219 450 240 C 450 203.550781 363.75 162.960938 240 162.960938 Z M 240 162.960938 "/>
<path style=" stroke:none;fill-rule:nonzero;fill:rgb(100%,100%,100%);fill-opacity:1;" d="M 150.808594 450 C 140.308594 450 130.769531 447.570312 122.398438 442.738281 C 108.75 434.878906 98.910156 420.960938 93.960938 402.449219 C 80.609375 352.558594 102.179688 268.230469 148.949219 187.621094 C 203.761719 93.328125 276.179688 30 329.21875 30 C 339.71875 30 349.261719 32.429688 357.628906 37.261719 C 371.25 45.089844 381.089844 59.011719 386.039062 77.488281 C 399.390625 127.410156 377.820312 211.738281 331.019531 292.351562 C 276.300781 386.640625 203.878906 450 150.808594 450 Z M 329.21875 60 C 294.601562 60 228.75 110.011719 174.898438 202.710938 C 132.601562 275.609375 111.71875 352.769531 122.941406 394.710938 C 125.851562 405.480469 130.679688 412.890625 137.339844 416.730469 C 166.46875 433.46875 243.121094 384.03125 305.070312 277.261719 C 347.398438 204.328125 368.28125 127.171875 357.058594 85.230469 C 354.148438 74.488281 349.320312 67.078125 342.691406 63.269531 C 338.851562 61.078125 334.441406 60 329.21875 60 Z M 329.21875 60 "/>
<path style=" stroke:none;fill-rule:nonzero;fill:rgb(100%,100%,100%);fill-opacity:1;" d="M 329.21875 450 C 276.148438 450 203.730469 386.640625 148.980469 292.378906 C 102.179688 211.800781 80.609375 127.46875 93.960938 77.550781 C 98.910156 59.039062 108.75 45.089844 122.398438 37.261719 C 130.769531 32.429688 140.339844 30 150.808594 30 C 203.851562 30 276.269531 93.359375 331.019531 187.679688 C 377.820312 268.289062 399.390625 352.589844 386.011719 402.511719 C 381.058594 421.019531 371.25 434.941406 357.628906 442.738281 C 349.261719 447.570312 339.691406 450 329.21875 450 Z M 150.808594 60 C 145.589844 60 141.179688 61.078125 137.339844 63.269531 C 130.648438 67.109375 125.820312 74.519531 122.941406 85.320312 C 111.71875 127.261719 132.601562 204.421875 174.929688 277.320312 C 228.71875 369.988281 294.570312 420 329.21875 420 C 334.46875 420 338.851562 418.921875 342.691406 416.730469 C 349.351562 412.921875 354.179688 405.511719 357.058594 394.738281 C 368.308594 352.800781 347.429688 275.640625 305.101562 202.738281 C 251.28125 110.011719 185.429688 60 150.808594 60 Z M 150.808594 60 "/>
<path style=" stroke:none;fill-rule:nonzero;fill:rgb(100%,100%,100%);fill-opacity:1;" d="M 270 240 C 270 256.589844 256.589844 270 240 270 C 223.410156 270 210 256.589844 210 240 C 210 223.410156 223.410156 210 240 210 C 256.589844 210 270 223.410156 270 240 Z M 270 240 "/>
<path style=" stroke:none;fill-rule:nonzero;fill:rgb(100%,100%,100%);fill-opacity:1;" d="M 240 285 C 215.191406 285 195 264.808594 195 240 C 195 215.191406 215.191406 195 240 195 C 264.808594 195 285 215.191406 285 240 C 285 264.808594 264.808594 285 240 285 Z M 240 225 C 231.75 225 225 231.71875 225 240 C 225 248.28125 231.75 255 240 255 C 248.25 255 255 248.28125 255 240 C 255 231.71875 248.25 225 240 225 Z M 240 225 "/>
</g>
</svg>
