<?xml version="1.0" encoding="UTF-8"?>
<svg xmlns="http://www.w3.org/2000/svg" xmlns:xlink="http://www.w3.org/1999/xlink" viewBox="0 0 500 500" width="500px" height="500px">
<g id="surface602742">
<path style=" stroke:none;fill-rule:nonzero;fill:rgb(100%,100%,100%);fill-opacity:1;" d="M 430.355469 278.230469 C 412.894531 278.3125 397.769531 282.519531 385.082031 288.769531 C 380.4375 279.519531 375.75 271.375 374.957031 265.3125 C 374.042969 258.25 372.980469 254.019531 374.082031 245.605469 C 375.1875 237.1875 380.0625 225.269531 380 224.375 C 379.9375 223.480469 378.917969 219.1875 368.832031 219.125 C 358.75 219.0625 350.144531 221.0625 349.125 223.730469 C 348.105469 226.394531 346.167969 232.375 344.957031 238.625 C 343.1875 247.75 324.855469 280.332031 314.4375 297.375 C 311.019531 290.730469 308.125 284.855469 307.519531 280.230469 C 306.605469 273.167969 305.542969 268.9375 306.644531 260.519531 C 307.75 252.105469 312.625 240.1875 312.5625 239.292969 C 312.5 238.394531 311.480469 234.105469 301.394531 234.042969 C 291.3125 233.980469 282.707031 235.980469 281.6875 238.644531 C 280.667969 241.3125 279.582031 247.519531 277.519531 253.542969 C 275.457031 259.5625 251.0625 313.894531 244.6875 327.980469 C 241.4375 335.144531 238.605469 340.917969 236.605469 344.855469 L 236.582031 344.832031 C 236.582031 344.832031 236.457031 345.105469 236.25 345.542969 C 234.542969 348.894531 233.519531 350.75 233.519531 350.75 C 233.519531 350.75 233.542969 350.769531 233.542969 350.8125 C 232.1875 353.269531 230.730469 355.5625 230 355.5625 C 229.5 355.5625 228.480469 349.019531 230.230469 340.019531 C 233.855469 321.167969 242.582031 291.769531 242.480469 290.769531 C 242.4375 290.25 244.105469 285.125 236.792969 282.457031 C 229.6875 279.855469 227.144531 284.1875 226.5 284.207031 C 225.875 284.230469 225.394531 285.75 225.394531 285.75 C 225.394531 285.75 233.3125 252.6875 210.292969 252.6875 C 195.894531 252.6875 175.957031 268.4375 166.125 282.707031 C 159.917969 286.082031 146.644531 293.332031 132.582031 301.0625 C 127.167969 304.042969 121.667969 307.0625 116.417969 309.957031 C 116.0625 309.5625 115.707031 309.167969 115.332031 308.769531 C 87.417969 278.980469 35.792969 257.917969 37.980469 217.875 C 38.769531 203.3125 43.832031 164.980469 137.144531 118.480469 C 213.582031 80.394531 274.792969 90.875 285.355469 114.105469 C 300.457031 147.292969 252.644531 208.980469 173.269531 217.875 C 143.019531 221.269531 127.105469 209.542969 123.144531 205.1875 C 118.980469 200.582031 118.355469 200.375 116.792969 201.25 C 114.25 202.644531 115.855469 206.707031 116.792969 209.125 C 119.167969 215.292969 128.894531 226.230469 145.480469 231.667969 C 160.0625 236.457031 195.582031 239.082031 238.519531 222.480469 C 286.625 203.875 324.1875 152.125 313.144531 108.855469 C 301.917969 64.855469 228.980469 50.394531 159.917969 74.917969 C 118.875 89.4375 74.394531 112.355469 42.417969 142.269531 C 4.394531 177.832031 -1.6875 208.8125 0.8125 221.75 C 9.6875 267.707031 73.042969 297.644531 98.417969 319.832031 C 97.167969 320.519531 96 321.167969 94.917969 321.769531 C 82.1875 328.0625 33.894531 353.332031 21.8125 380.042969 C 8.105469 410.332031 24 432.0625 34.5 435 C 67.082031 444.0625 100.519531 427.75 118.480469 400.957031 C 136.4375 374.167969 134.25 339.269531 126 323.355469 C 125.894531 323.167969 125.792969 322.957031 125.6875 322.769531 C 128.980469 320.832031 132.3125 318.855469 135.644531 316.894531 C 142.125 313.105469 148.480469 309.542969 153.980469 306.542969 C 150.894531 315 148.625 325.125 147.457031 339.769531 C 146.105469 356.9375 153.167969 379.167969 162.375 387.917969 C 166.4375 391.769531 171.3125 391.855469 174.417969 391.855469 C 185.144531 391.855469 190.042969 382.9375 195.4375 372.375 C 202.042969 359.417969 207.917969 344.355469 207.917969 344.355469 C 207.917969 344.355469 200.5625 385.082031 220.625 385.082031 C 227.9375 385.082031 235.292969 375.605469 238.5625 370.769531 C 238.5625 370.832031 238.582031 370.855469 238.582031 370.855469 C 238.582031 370.855469 238.769531 370.542969 239.144531 369.917969 C 239.894531 368.75 240.332031 368.019531 240.332031 368.019531 C 240.332031 368.019531 240.355469 367.9375 240.375 367.8125 C 243.3125 362.707031 249.832031 351.082031 259.605469 331.894531 C 272.230469 307.105469 284.332031 276.0625 284.332031 276.0625 C 284.332031 276.0625 285.457031 283.644531 289.144531 296.207031 C 291.3125 303.582031 295.9375 311.75 299.5625 319.582031 C 296.625 323.644531 294.832031 325.980469 294.832031 325.980469 C 294.832031 325.980469 294.855469 326.019531 294.875 326.105469 C 292.542969 329.207031 289.917969 332.5625 287.167969 335.832031 C 277.207031 347.707031 265.332031 361.25 263.75 365.167969 C 261.875 369.769531 262.3125 373.167969 265.9375 375.894531 C 268.582031 377.894531 273.292969 378.1875 278.207031 377.875 C 287.167969 377.269531 293.457031 375.042969 296.582031 373.707031 C 301.4375 372 307.082031 369.292969 312.375 365.394531 C 322.144531 358.207031 328.042969 347.917969 327.480469 334.3125 C 327.167969 326.8125 324.769531 319.375 321.75 312.355469 C 322.644531 311.082031 323.519531 309.792969 324.417969 308.480469 C 339.832031 285.957031 351.792969 261.1875 351.792969 261.1875 C 351.792969 261.1875 352.917969 268.769531 356.605469 281.332031 C 358.480469 287.6875 362.144531 294.625 365.480469 301.417969 C 350.980469 313.1875 342 326.875 338.875 335.855469 C 333.105469 352.457031 337.625 359.980469 346.105469 361.6875 C 349.9375 362.457031 355.375 360.707031 359.4375 358.980469 C 364.519531 357.292969 370.605469 354.5 376.3125 350.3125 C 386.082031 343.125 395.480469 333.0625 394.917969 319.4375 C 394.667969 313.230469 392.980469 307.082031 390.6875 301.167969 C 402.980469 296.042969 418.875 293.207031 439.125 295.5625 C 482.582031 300.644531 491.105469 327.769531 489.480469 339.125 C 487.855469 350.480469 478.730469 356.730469 475.6875 358.605469 C 472.644531 360.480469 471.707031 361.144531 471.957031 362.542969 C 472.332031 364.582031 473.730469 364.5 476.332031 364.0625 C 479.917969 363.457031 499.144531 354.832031 499.980469 333.855469 C 501.019531 307.207031 475.519531 277.980469 430.355469 278.230469 Z M 95.375 391.144531 C 80.980469 406.855469 60.875 412.792969 52.25 407.792969 C 42.9375 402.394531 46.625 379.269531 64.292969 362.605469 C 75.0625 352.457031 88.957031 343.105469 98.1875 337.332031 C 100.292969 336.0625 103.375 334.207031 107.125 331.980469 C 107.75 331.625 108.105469 331.4375 108.105469 331.4375 L 108.082031 331.417969 C 108.8125 330.980469 109.542969 330.542969 110.3125 330.082031 C 116.730469 353.792969 110.480469 374.667969 95.375 391.144531 Z M 200.25 319.855469 C 195.230469 332.082031 184.75 363.355469 178.355469 361.667969 C 172.875 360.230469 169.542969 336.457031 177.25 313.0625 C 181.144531 301.292969 189.4375 287.207031 194.332031 281.75 C 202.1875 272.957031 210.832031 270.082031 212.9375 273.644531 C 215.625 278.207031 203.394531 312.207031 200.25 319.855469 Z M 286.875 361.207031 C 284.75 362.3125 282.792969 363.019531 281.894531 362.480469 C 281.230469 362.082031 282.769531 360.625 282.769531 360.625 C 282.769531 360.625 293.605469 348.957031 297.875 343.667969 C 300.355469 340.582031 303.230469 336.917969 306.375 332.8125 C 306.394531 333.230469 306.417969 333.625 306.417969 334.019531 C 306.394531 347.980469 292.894531 357.417969 286.875 361.207031 Z M 353.625 345.980469 C 352.042969 344.855469 352.3125 341.207031 357.519531 329.855469 C 359.5625 325.394531 364.230469 317.894531 372.355469 310.707031 C 373.292969 313.667969 373.875 316.480469 373.855469 319.125 C 373.75 336.707031 361.207031 343.269531 353.625 345.980469 Z M 353.625 345.980469 "/>
</g>
</svg>
